<svg width="46" height="46" viewBox="0 0 46 46" fill="none" xmlns="http://www.w3.org/2000/svg">
<path d="M33.66 27.539C35.3818 24.7114 36.2924 21.4646 36.292 18.154C36.292 8.125 28.177 0.004 18.146 0C8.124 0.003 0 8.125 0 18.152C0 28.17 8.125 36.291 18.152 36.291C21.592 36.291 24.797 35.319 27.536 33.658L39.879 46L46 39.876L33.66 27.539ZM18.15 29.38C11.948 29.365 6.934 24.353 6.923 18.164C6.92723 15.1875 8.11137 12.3341 10.2159 10.2293C12.3204 8.1244 15.1735 6.93976 18.15 6.935C24.349 6.951 29.365 11.963 29.378 18.164C29.365 24.346 24.347 29.365 18.15 29.38Z" fill="#1E1E1E" fill-opacity="0.6"/>
</svg>
